<mxfile host="65bd71144e">
    <diagram id="Um5UQkkA05jx3OKsi89t" name="Page-1">
        <mxGraphModel dx="475" dy="354" grid="1" gridSize="10" guides="1" tooltips="1" connect="1" arrows="1" fold="1" page="1" pageScale="1" pageWidth="850" pageHeight="1100" math="0" shadow="0">
            <root>
                <mxCell id="0"/>
                <mxCell id="1" parent="0"/>
                <mxCell id="12" value="" style="rounded=0;whiteSpace=wrap;html=1;fontSize=14;strokeColor=#6c8ebf;fillColor=none;dashed=1;dashPattern=8 8;" vertex="1" parent="1">
                    <mxGeometry x="520" y="160" width="210" height="80" as="geometry"/>
                </mxCell>
                <mxCell id="11" value="" style="rounded=0;whiteSpace=wrap;html=1;fontSize=14;strokeColor=#b85450;fillColor=none;dashed=1;dashPattern=8 8;" vertex="1" parent="1">
                    <mxGeometry x="210" y="160" width="170" height="80" as="geometry"/>
                </mxCell>
                <mxCell id="5" value="" style="group" vertex="1" connectable="0" parent="1">
                    <mxGeometry x="234" y="184" width="120" height="40" as="geometry"/>
                </mxCell>
                <mxCell id="4" value="Sets" style="group;verticalAlign=middle;fillColor=default;strokeColor=#b85450;" vertex="1" connectable="0" parent="5">
                    <mxGeometry width="120" height="40" as="geometry"/>
                </mxCell>
                <mxCell id="2" value="" style="rounded=0;whiteSpace=wrap;html=1;fillColor=#f8cecc;strokeColor=#b85450;" vertex="1" parent="5">
                    <mxGeometry width="20" height="40" as="geometry"/>
                </mxCell>
                <mxCell id="10" value="" style="group" vertex="1" connectable="0" parent="1">
                    <mxGeometry x="260" y="40" width="320" height="60" as="geometry"/>
                </mxCell>
                <mxCell id="8" value="&lt;font style=&quot;font-size: 14px;&quot;&gt;&lt;b&gt;Contains Duplicate&lt;/b&gt;&lt;/font&gt;" style="rounded=0;whiteSpace=wrap;html=1;strokeColor=#d6b656;" vertex="1" parent="10">
                    <mxGeometry x="60" width="260" height="60" as="geometry"/>
                </mxCell>
                <mxCell id="7" value="" style="rounded=0;whiteSpace=wrap;html=1;fillColor=#fff2cc;strokeColor=#d6b656;" vertex="1" parent="10">
                    <mxGeometry width="60" height="60" as="geometry"/>
                </mxCell>
                <mxCell id="6" value="" style="shape=image;verticalLabelPosition=bottom;labelBackgroundColor=default;verticalAlign=top;aspect=fixed;imageAspect=0;image=data:image/svg+xml,PHN2ZyB4bWxucz0iaHR0cDovL3d3dy53My5vcmcvMjAwMC9zdmciIHJvbGU9ImltZyIgdmlld0JveD0iMCAwIDI0IDI0IiBoZWlnaHQ9IjgwMHB4IiB3aWR0aD0iODAwcHgiIGZpbGw9IiMwMDAwMDAiPjx0aXRsZT5MZWV0Q29kZSBJY29uPC90aXRsZT48cGF0aCBkPSJNMTYuMTAyIDE3LjkzbC0yLjY5NyAyLjYwN2MtLjQ2Ni40NjctMS4xMTEuNjYyLTEuODIzLjY2MnMtMS4zNTctLjE5NS0xLjgyNC0uNjYybC00LjMzMi00LjM2M2MtLjQ2Ny0uNDY3LS43MDItMS4xNS0uNzAyLTEuODYzcy4yMzUtMS4zNTcuNzAyLTEuODI0bDQuMzE5LTQuMzhjLjQ2Ny0uNDY3IDEuMTI1LS42NDUgMS44MzctLjY0NXMxLjM1Ny4xOTUgMS44MjMuNjYybDIuNjk3IDIuNjA2Yy41MTQuNTE1IDEuMzY1LjQ5NyAxLjktLjAzOC41MzUtLjUzNi41NTMtMS4zODcuMDM5LTEuOTAxbC0yLjYwOS0yLjYzNmE1LjA1NSA1LjA1NSAwIDAgMC0yLjQ0NS0xLjMzN2wyLjQ2Ny0yLjUwM2MuNTE2LS41MTQuNDk4LTEuMzY2LS4wMzctMS45MDEtLjUzNS0uNTM1LTEuMzg3LS41NTItMS45MDItLjAzOGwtMTAuMSAxMC4xMDFjLS45ODEuOTgyLTEuNDk0IDIuMzM3LTEuNDk0IDMuODM1IDAgMS40OTguNTEzIDIuODk1IDEuNDk0IDMuODc1bDQuMzQ3IDQuMzYxYy45ODEuOTc5IDIuMzM3IDEuNDUyIDMuODM0IDEuNDUyczIuODUzLS41MTIgMy44MzUtMS40OTRsMi42MDktMi42MzdjLjUxNC0uNTE0LjQ5Ni0xLjM2NS0uMDM5LTEuOXMtMS4zODYtLjU1My0xLjg5OS0uMDM5ek0yMC44MTEgMTMuMDFIMTAuNjY2Yy0uNzAyIDAtMS4yNy42MDQtMS4yNyAxLjM0NnMuNTY4IDEuMzQ2IDEuMjcgMS4zNDZoMTAuMTQ1Yy43MDEgMCAxLjI3LS42MDQgMS4yNy0xLjM0NnMtLjU2OS0xLjM0Ni0xLjI3LTEuMzQ2eiIvPjwvc3ZnPg==;imageBorder=none;imageBackground=none;" vertex="1" parent="10">
                    <mxGeometry x="10" y="10" width="40" height="40" as="geometry"/>
                </mxCell>
                <mxCell id="13" style="edgeStyle=orthogonalEdgeStyle;html=1;exitX=0.25;exitY=1;exitDx=0;exitDy=0;entryX=0.5;entryY=0;entryDx=0;entryDy=0;fontSize=14;" edge="1" parent="1" source="8" target="11">
                    <mxGeometry relative="1" as="geometry"/>
                </mxCell>
                <mxCell id="14" style="edgeStyle=orthogonalEdgeStyle;html=1;exitX=0.75;exitY=1;exitDx=0;exitDy=0;entryX=0.5;entryY=0;entryDx=0;entryDy=0;fontSize=14;" edge="1" parent="1" source="8" target="12">
                    <mxGeometry relative="1" as="geometry"/>
                </mxCell>
                <mxCell id="15" value="&lt;font color=&quot;#6c8ebf&quot;&gt;len(set(array)) == len(array) ?&lt;/font&gt;" style="text;strokeColor=none;align=center;fillColor=none;html=1;verticalAlign=middle;whiteSpace=wrap;rounded=0;dashed=1;dashPattern=8 8;fontSize=14;" vertex="1" parent="1">
                    <mxGeometry x="531" y="195" width="195" height="30" as="geometry"/>
                </mxCell>
                <mxCell id="16" value="&lt;span style=&quot;font-size: 8px;&quot;&gt;&lt;font color=&quot;#b85450&quot;&gt;Data Structures / Abstract Data Types&lt;/font&gt;&lt;/span&gt;" style="text;strokeColor=none;align=center;fillColor=none;html=1;verticalAlign=middle;whiteSpace=wrap;rounded=0;dashed=1;dashPattern=8 8;fontSize=14;fontColor=#6c8ebf;" vertex="1" parent="1">
                    <mxGeometry x="210" y="160" width="140" height="10" as="geometry"/>
                </mxCell>
                <mxCell id="17" value="&lt;span style=&quot;font-size: 8px;&quot;&gt;Algorithms / Tricks of the Trade&lt;/span&gt;" style="text;strokeColor=none;align=center;fillColor=none;html=1;verticalAlign=middle;whiteSpace=wrap;rounded=0;dashed=1;dashPattern=8 8;fontSize=14;fontColor=#6c8ebf;" vertex="1" parent="1">
                    <mxGeometry x="510" y="160" width="140" height="10" as="geometry"/>
                </mxCell>
            </root>
        </mxGraphModel>
    </diagram>
</mxfile>